<?xml version="1.0" encoding="UTF-8" standalone="no"?> <svg xmlns="http://www.w3.org/2000/svg" xmlns:svg="http://www.w3.org/2000/svg" version="1.1" id="svg1" width="2516.6667" height="1027.8933" viewBox="0 0 2516.6667 1027.8933"><defs id="defs1"></defs><g id="g1"><g id="group-R5"><path id="path2" d="m 10150.9,5596.93 c -88.5,71.87 -176.9,125.08 -265.38,159.69 -88.48,34.47 -174.16,51.8 -257.1,51.8 -105.08,0 -190.69,-24.87 -257.04,-74.67 -66.34,-49.74 -99.54,-114.69 -99.54,-194.83 0,-55.34 16.6,-100.95 49.74,-136.89 33.2,-35.94 76.74,-67.01 130.61,-93.28 53.95,-26.27 114.69,-49.07 182.5,-68.41 67.67,-19.4 134.75,-40.14 201.09,-62.21 265.42,-88.47 459.52,-206.69 582.62,-354.51 122.9,-147.89 184.5,-340.71 184.5,-578.41 0,-160.36 -27,-305.51 -80.9,-435.4 -53.9,-130.02 -132.7,-241.23 -236.3,-333.84 -103.7,-92.62 -230.9,-164.49 -381.51,-215.57 -150.69,-51.14 -321.38,-76.74 -512.07,-76.74 -395.39,0 -761.64,117.48 -1098.82,352.45 l 348.25,655.15 c 121.62,-107.81 241.9,-188.02 360.78,-240.5 118.82,-52.54 236.37,-78.81 352.45,-78.81 132.69,0 231.5,30.41 296.51,91.28 64.87,60.74 97.41,129.89 97.41,207.3 0,47 -8.27,87.74 -24.87,122.35 -16.6,34.54 -44.27,66.34 -82.94,95.35 -38.74,29 -89.15,56 -151.36,80.87 -62.21,24.87 -137.55,52.48 -225.96,82.95 -105.08,33.14 -208.03,69.74 -308.91,109.88 -100.95,40.01 -190.76,93.28 -269.57,159.62 -78.75,66.34 -142.36,149.89 -190.7,250.84 -48.4,100.88 -72.61,228.7 -72.61,383.58 0,154.76 25.54,295.04 76.75,420.86 51.14,125.75 122.95,233.57 215.63,323.45 92.54,89.81 205.89,159.62 339.98,209.36 134.08,49.81 284.04,74.68 449.93,74.68 154.75,0 316.51,-21.47 485.13,-64.28 168.6,-42.87 330.3,-105.75 485.1,-188.69 l -323.4,-634.42" style="fill:#3cb83d;fill-opacity:1;fill-rule:nonzero;stroke:none" transform="matrix(0.13333333,0,0,-0.13333333,0,1027.8933)"></path><path id="path3" d="m 13306.4,5708.88 h -966.1 V 5186.4 h 912.2 v -688.29 h -912.2 v -539.08 h 966.1 v -688.29 h -1778.9 v 3126.5 h 1778.9 v -688.36" style="fill:#3cb83d;fill-opacity:1;fill-rule:nonzero;stroke:none" transform="matrix(0.13333333,0,0,-0.13333333,0,1027.8933)"></path><path id="path4" d="m 15014.7,4833.95 c 0,-124.35 23.5,-239.1 70.5,-344.11 47,-105.08 110.5,-196.36 190.7,-273.71 80.2,-77.41 173.5,-137.55 279.9,-180.35 106.5,-42.88 219.1,-64.28 338,-64.28 118.8,0 231.5,21.4 337.9,64.28 106.4,42.8 200.4,102.94 282,180.35 81.5,77.35 145.8,168.63 192.8,273.71 47,105.01 70.5,219.76 70.5,344.11 0,124.42 -23.5,239.1 -70.5,344.18 -47,105.02 -111.3,196.23 -192.8,273.71 -81.6,77.34 -175.6,137.49 -282,180.36 -106.4,42.8 -219.1,64.27 -337.9,64.27 -118.9,0 -231.5,-21.47 -338,-64.27 -106.4,-42.87 -199.7,-103.02 -279.9,-180.36 -80.2,-77.48 -143.7,-168.69 -190.7,-273.71 -47,-105.08 -70.5,-219.76 -70.5,-344.18 z m -850,0 c 0,232.24 42.8,448.53 128.5,648.96 85.7,200.43 204.6,375.25 356.6,524.54 152,149.29 333.8,266.04 545.3,350.38 211.5,84.28 444.4,126.49 698.7,126.49 251.5,0 483.7,-42.21 696.6,-126.49 212.8,-84.34 396,-201.09 549.4,-350.38 153.4,-149.29 273,-324.11 358.7,-524.54 85.6,-200.43 128.6,-416.72 128.6,-648.96 0,-232.16 -43,-448.53 -128.6,-648.89 -85.7,-200.49 -205.3,-375.25 -358.7,-524.54 -153.4,-149.28 -336.6,-266.1 -549.4,-350.38 -212.9,-84.28 -445.1,-126.48 -696.6,-126.48 -254.3,0 -487.2,42.2 -698.7,126.48 -211.5,84.28 -393.3,201.1 -545.3,350.38 -152,149.29 -270.9,324.05 -356.6,524.54 -85.7,200.36 -128.5,416.73 -128.5,648.89" style="fill:#3cb83d;fill-opacity:1;fill-rule:nonzero;stroke:none" transform="matrix(0.13333333,0,0,-0.13333333,0,1027.8933)"></path><path id="path5" d="m 9549.43,2394.56 c -40.13,45.45 -93.64,82.26 -160.51,110.35 -66.91,28.09 -143.15,42.13 -228.73,42.13 -125.74,0 -217.39,-23.76 -274.88,-71.23 -57.52,-47.49 -86.28,-112.04 -86.28,-193.61 0,-42.82 7.69,-77.94 23.08,-105.33 15.36,-27.43 39.13,-51.17 71.22,-71.23 32.11,-20.07 73.24,-37.47 123.4,-52.17 50.16,-14.73 109.35,-29.43 177.57,-44.14 76.24,-16.05 144.77,-34.11 205.65,-54.17 60.85,-20.06 112.67,-45.14 155.49,-75.24 42.79,-30.1 75.56,-66.55 98.32,-109.35 22.72,-42.82 34.11,-96.3 34.11,-160.51 0,-65.55 -12.73,-122.39 -38.13,-170.54 -25.42,-48.16 -60.88,-88.28 -106.33,-120.39 -45.5,-32.1 -99.67,-55.86 -162.53,-71.22 -62.88,-15.36 -131.76,-23.07 -206.65,-23.07 -220.69,0 -411.3,68.87 -571.82,206.65 l 70.23,114.37 c 25.38,-26.77 55.82,-52.17 91.29,-76.24 35.43,-24.08 74.89,-45.15 118.37,-63.2 43.45,-18.06 89.95,-32.1 139.45,-42.14 49.46,-10.03 101.63,-15.04 156.49,-15.04 113.68,0 202.3,20.37 265.85,61.19 63.51,40.78 95.31,102.64 95.31,185.59 0,44.14 -9.04,81.25 -27.1,111.35 -18.05,30.1 -45.14,56.18 -81.26,78.25 -36.1,22.07 -80.94,41.13 -134.42,57.18 -53.52,16.06 -115.71,32.1 -186.59,48.16 -74.93,17.36 -140.45,35.42 -196.62,54.17 -56.18,18.71 -103.68,42.13 -142.46,70.22 -38.81,28.09 -67.9,61.86 -87.28,101.32 -19.41,39.44 -29.1,87.94 -29.1,145.46 0,65.52 12.36,124.06 37.12,175.57 24.74,51.47 59.85,94.29 105.34,128.4 45.45,34.11 98.97,60.19 160.52,78.25 61.5,18.06 129.71,27.09 204.64,27.09 94.96,0 179.58,-14.39 253.81,-43.14 74.24,-28.78 141.45,-69.22 201.64,-121.39 l -68.21,-112.35" style="fill:#3cb83d;fill-opacity:1;fill-rule:nonzero;stroke:none" transform="matrix(0.13333333,0,0,-0.13333333,0,1027.8933)"></path><path id="path6" d="m 10713.1,1353.25 c 89.6,0 164.2,17.05 223.7,51.16 59.5,34.1 107,78.9 142.5,134.42 35.4,55.49 60.2,118.7 74.2,189.61 14.1,70.88 21.1,142.45 21.1,214.68 v 718.29 h 140.4 v -718.29 c 0,-96.31 -10.7,-187.6 -32.1,-273.87 -21.4,-86.28 -55.9,-162.21 -103.3,-227.73 -47.5,-65.54 -109.4,-117.71 -185.6,-156.49 -76.2,-38.81 -169.2,-58.18 -278.9,-58.18 -112.3,0 -207,20.37 -283.9,61.19 -76.9,40.78 -138.8,94.61 -185.6,161.51 -46.8,66.87 -80.2,143.11 -100.3,228.73 -20.1,85.58 -30.1,173.87 -30.1,264.84 v 718.29 h 138.4 v -718.29 c 0,-74.93 7.4,-147.81 22.1,-218.69 14.7,-70.92 39.8,-133.77 75.3,-188.61 35.4,-54.86 82.5,-98.99 141.4,-132.41 58.9,-33.45 132.4,-50.16 220.7,-50.16" style="fill:#3cb83d;fill-opacity:1;fill-rule:nonzero;stroke:none" transform="matrix(0.13333333,0,0,-0.13333333,0,1027.8933)"></path><path id="path7" d="m 11756.4,1959.17 c 0,85.59 15.1,170.86 45.2,255.81 30,84.93 73.8,160.83 131.4,227.73 57.5,66.87 128.4,121.39 212.6,163.52 84.3,42.13 179.9,63.2 287,63.2 127,0 235.7,-28.78 326,-86.27 90.3,-57.53 156.8,-132.43 199.6,-224.72 l -110.3,-68.22 c -22.8,46.81 -50.5,86.28 -83.3,118.38 -32.8,32.11 -67.9,58.19 -105.3,78.25 -37.5,20.06 -76.3,34.42 -116.4,43.13 -40.1,8.69 -79.6,13.05 -118.4,13.05 -85.6,0 -161.2,-17.4 -226.7,-52.17 -65.5,-34.79 -120.7,-80.26 -165.5,-136.43 -44.8,-56.18 -78.6,-119.38 -101.3,-189.61 -22.8,-70.22 -34.1,-141.45 -34.1,-213.68 0,-78.93 13.6,-154.48 41.1,-226.71 27.4,-72.23 64.8,-136.12 112.3,-191.61 47.5,-55.52 103.7,-99.67 168.6,-132.42 64.8,-32.79 135.4,-49.16 211.7,-49.16 40.1,0 81.2,5.02 123.3,15.05 42.2,10.03 83,26.08 122.4,48.15 39.5,22.07 75.9,49.47 109.4,82.26 33.4,32.76 61.5,72.55 84.2,119.38 l 116.4,-60.19 c -22.7,-53.51 -54.8,-100.66 -96.3,-141.45 -41.5,-40.82 -87.6,-75.24 -138.4,-103.33 -50.9,-28.09 -104.7,-49.5 -161.5,-64.21 -56.9,-14.69 -112.7,-22.06 -167.6,-22.06 -97.6,0 -187.3,21.38 -268.8,64.2 -81.6,42.79 -151.9,98.62 -210.7,167.53 -58.9,68.88 -104.7,147.13 -137.4,234.75 -32.8,87.59 -49.2,176.87 -49.2,267.85" style="fill:#3cb83d;fill-opacity:1;fill-rule:nonzero;stroke:none" transform="matrix(0.13333333,0,0,-0.13333333,0,1027.8933)"></path><path id="path8" d="m 13319.4,1959.17 c 0,85.59 15,170.86 45.1,255.81 30.1,84.93 73.9,160.83 131.4,227.73 57.5,66.87 128.5,121.39 212.7,163.52 84.3,42.13 179.9,63.2 286.9,63.2 127.1,0 235.8,-28.78 326.1,-86.27 90.3,-57.53 156.8,-132.43 199.6,-224.72 l -110.3,-68.22 c -22.8,46.81 -50.5,86.28 -83.3,118.38 -32.8,32.11 -67.9,58.19 -105.4,78.25 -37.4,20.06 -76.2,34.42 -116.3,43.13 -40.1,8.69 -79.6,13.05 -118.4,13.05 -85.6,0 -161.2,-17.4 -226.7,-52.17 -65.6,-34.79 -120.7,-80.26 -165.5,-136.43 -44.9,-56.18 -78.6,-119.38 -101.4,-189.61 -22.7,-70.22 -34.1,-141.45 -34.1,-213.68 0,-78.93 13.7,-154.48 41.2,-226.71 27.4,-72.23 64.8,-136.12 112.3,-191.61 47.5,-55.52 103.7,-99.67 168.6,-132.42 64.8,-32.79 135.4,-49.16 211.6,-49.16 40.1,0 81.3,5.02 123.4,15.05 42.2,10.03 82.9,26.08 122.4,48.15 39.5,22.07 75.9,49.47 109.4,82.26 33.4,32.76 61.5,72.55 84.2,119.38 l 116.4,-60.19 c -22.8,-53.51 -54.9,-100.66 -96.3,-141.45 -41.5,-40.82 -87.6,-75.24 -138.5,-103.33 -50.8,-28.09 -104.6,-49.5 -161.5,-64.21 -56.8,-14.69 -112.7,-22.06 -167.5,-22.06 -97.7,0 -187.3,21.38 -268.9,64.2 -81.6,42.79 -151.8,98.62 -210.6,167.53 -58.9,68.88 -104.7,147.13 -137.5,234.75 -32.8,87.59 -49.1,176.87 -49.1,267.85" style="fill:#3cb83d;fill-opacity:1;fill-rule:nonzero;stroke:none" transform="matrix(0.13333333,0,0,-0.13333333,0,1027.8933)"></path><path id="path9" d="m 15022.8,1949.14 c 0,-77.59 12.7,-152.17 38.1,-223.71 25.4,-71.57 61.5,-135.12 108.4,-190.61 46.8,-55.52 102.3,-99.66 166.5,-132.42 64.2,-32.79 135.7,-49.15 214.7,-49.15 80.2,0 153.1,17.37 218.7,52.16 65.5,34.77 121,80.26 166.5,136.44 45.5,56.17 80.6,119.69 105.3,190.6 24.8,70.89 37.1,143.11 37.1,216.69 0,77.56 -13,152.14 -39.1,223.71 -26.1,71.54 -62.5,134.74 -109.3,189.6 -46.8,54.84 -102.3,98.63 -166.5,131.42 -64.2,32.76 -135.2,49.16 -212.7,49.16 -80.3,0 -153.2,-17.06 -218.7,-51.16 -65.6,-34.12 -121.1,-79.25 -166.5,-135.44 -45.5,-56.17 -80.7,-119.72 -105.4,-190.6 -24.8,-70.91 -37.1,-143.14 -37.1,-216.69 z m 527.7,-722.29 c -99,0 -189.6,20.37 -271.9,61.19 -82.3,40.78 -152.8,94.96 -211.7,162.52 -58.8,67.52 -104.3,144.77 -136.4,231.73 -32.1,86.93 -48.1,175.87 -48.1,266.85 0,94.96 17,185.9 51.1,272.87 34.1,86.93 81.3,163.83 141.5,230.73 60.2,66.87 131,120.04 212.6,159.51 81.6,39.44 169.9,59.19 264.9,59.19 98.9,0 189.6,-21.07 271.8,-63.2 82.3,-42.14 152.5,-97.31 210.7,-165.53 58.2,-68.22 103.3,-145.46 135.4,-231.74 32.1,-86.27 48.2,-174.24 48.2,-263.84 0,-94.98 -17.1,-185.93 -51.2,-272.86 -34.1,-86.97 -80.9,-163.53 -140.4,-229.73 -59.5,-66.21 -130.1,-119.07 -211.7,-158.51 -81.6,-39.46 -169.9,-59.18 -264.8,-59.18" style="fill:#3cb83d;fill-opacity:1;fill-rule:nonzero;stroke:none" transform="matrix(0.13333333,0,0,-0.13333333,0,1027.8933)"></path><path id="path10" d="m 16824.5,1886.94 h 465.5 c 41.4,0 79.2,9.03 113.4,27.09 34.1,18.06 63.2,42.45 87.2,73.23 24.1,30.75 42.8,65.52 56.2,104.33 13.4,38.78 20.1,79.57 20.1,122.39 0,42.79 -7.7,83.93 -23.1,123.39 -15.4,39.44 -36.1,73.9 -62.2,103.34 -26.1,29.4 -56.9,52.82 -92.3,70.22 -35.5,17.37 -72.6,26.08 -111.3,26.08 h -453.5 z m -140.4,-650.06 v 1424.53 h 601.9 c 61.5,0 118,-13.05 169.5,-39.13 51.5,-26.08 96,-60.19 133.4,-102.32 37.5,-42.14 66.6,-89.97 87.3,-143.46 20.7,-53.51 31.1,-107.68 31.1,-162.52 0,-52.16 -7.7,-102.01 -23.1,-149.47 -15.3,-47.5 -36.8,-90.29 -64.2,-128.41 -27.4,-38.12 -60.5,-70.22 -99.3,-96.31 -38.8,-26.08 -82.2,-43.83 -130.4,-53.16 l 349.1,-549.75 h -158.5 l -335.1,525.67 h -421.3 v -525.67 h -140.4" style="fill:#3cb83d;fill-opacity:1;fill-rule:nonzero;stroke:none" transform="matrix(0.13333333,0,0,-0.13333333,0,1027.8933)"></path><path id="path11" d="m 4857.75,6328.42 c 699.85,-312.1 1156.47,-702.63 1446.28,-1035.05 h 152.09 c 302.16,0 547.39,245.24 547.39,547.38 v 487.67 H 4857.75" style="fill:#4596d8;fill-opacity:1;fill-rule:nonzero;stroke:none" transform="matrix(0.13333333,0,0,-0.13333333,0,1027.8933)"></path><path id="path12" d="M 4649.17,6328.42 H 3847.8 c -976.93,0 -1786.25,-792.21 -1769.53,-1769.13 0.8,-33.84 1.99,-67.68 4.77,-100.72 329.23,-209.4 743.25,-234.08 1109.9,-193.47 -49.37,93.95 -77.63,199.84 -79.62,312.5 -6.77,393.72 328.43,715.77 722.14,715.77 h 2259.99 c -289.81,332.42 -746.43,722.95 -1446.28,1035.05" style="fill:#60b7e9;fill-opacity:1;fill-rule:nonzero;stroke:none" transform="matrix(0.13333333,0,0,-0.13333333,0,1027.8933)"></path><path id="path13" d="m 2024.28,2415.79 h -152.09 c -302.16,0 -547.39,-245.24 -547.39,-547.39 v -487.66 h 2145.76 c -699.85,312.1 -1156.47,702.63 -1446.28,1035.05" style="fill:#4596d8;fill-opacity:1;fill-rule:nonzero;stroke:none" transform="matrix(0.13333333,0,0,-0.13333333,0,1027.8933)"></path><path id="path14" d="m 6245.26,3250.59 c -329.22,209.39 -743.24,234.08 -1109.89,193.47 49.37,-93.95 77.63,-199.84 79.62,-312.5 6.77,-393.72 -328.43,-715.77 -722.14,-715.77 H 2232.86 c 289.81,-332.42 746.43,-722.95 1446.28,-1035.05 h 801.36 c 976.93,0 1786.26,792.2 1769.54,1769.13 -0.8,33.83 -1.99,67.68 -4.78,100.72" style="fill:#60b7e9;fill-opacity:1;fill-rule:nonzero;stroke:none" transform="matrix(0.13333333,0,0,-0.13333333,0,1027.8933)"></path><path id="path15" d="m 3794.43,3753.42 c 2.6,-6.12 5.01,-12.32 7.18,-18.64 -2.16,6.32 -4.59,12.52 -7.18,18.64" style="fill:#4596d8;fill-opacity:1;fill-rule:nonzero;stroke:none" transform="matrix(0.13333333,0,0,-0.13333333,0,1027.8933)"></path><path id="path16" d="m 3785.55,3772.22 c 2.15,-4.16 4.16,-8.4 6.1,-12.67 -1.94,4.27 -3.95,8.51 -6.1,12.67" style="fill:#4596d8;fill-opacity:1;fill-rule:nonzero;stroke:none" transform="matrix(0.13333333,0,0,-0.13333333,0,1027.8933)"></path><path id="path17" d="m 2103.84,4292.13 c -0.82,4.78 -1.66,9.55 -2.45,14.34 0.79,-4.79 1.62,-9.56 2.45,-14.34" style="fill:#4596d8;fill-opacity:1;fill-rule:nonzero;stroke:none" transform="matrix(0.13333333,0,0,-0.13333333,0,1027.8933)"></path><path id="path18" d="m 3774.97,3790.9 c 2.46,-3.99 4.84,-8.03 7.09,-12.14 -2.26,4.11 -4.63,8.15 -7.09,12.14" style="fill:#4596d8;fill-opacity:1;fill-rule:nonzero;stroke:none" transform="matrix(0.13333333,0,0,-0.13333333,0,1027.8933)"></path><path id="path19" d="m 3809.83,3704.84 c 0.59,-2.66 1.15,-5.33 1.67,-8.02 -0.51,2.69 -1.08,5.36 -1.67,8.02" style="fill:#4596d8;fill-opacity:1;fill-rule:nonzero;stroke:none" transform="matrix(0.13333333,0,0,-0.13333333,0,1027.8933)"></path><path id="path20" d="m 2192.52,3969.83 c -0.52,1.35 -1.04,2.7 -1.55,4.05 0.51,-1.35 1.03,-2.7 1.55,-4.05" style="fill:#4596d8;fill-opacity:1;fill-rule:nonzero;stroke:none" transform="matrix(0.13333333,0,0,-0.13333333,0,1027.8933)"></path><path id="path21" d="m 2149.67,4096.01 c -1.03,3.47 -2.01,6.96 -3.01,10.44 1,-3.48 1.98,-6.97 3.01,-10.44" style="fill:#4596d8;fill-opacity:1;fill-rule:nonzero;stroke:none" transform="matrix(0.13333333,0,0,-0.13333333,0,1027.8933)"></path><path id="path22" d="m 2115.6,4230.35 c -0.55,2.59 -1.02,5.2 -1.56,7.79 0.54,-2.59 1.01,-5.2 1.56,-7.79" style="fill:#4596d8;fill-opacity:1;fill-rule:nonzero;stroke:none" transform="matrix(0.13333333,0,0,-0.13333333,0,1027.8933)"></path><path id="path23" d="m 2132.29,4159.13 c -0.83,3.24 -1.7,6.45 -2.51,9.7 0.81,-3.25 1.68,-6.46 2.51,-9.7" style="fill:#4596d8;fill-opacity:1;fill-rule:nonzero;stroke:none" transform="matrix(0.13333333,0,0,-0.13333333,0,1027.8933)"></path><path id="path24" d="m 3803.4,3728.88 c 1.4,-4.39 2.74,-8.82 3.92,-13.3 -1.17,4.49 -2.53,8.9 -3.92,13.3" style="fill:#4596d8;fill-opacity:1;fill-rule:nonzero;stroke:none" transform="matrix(0.13333333,0,0,-0.13333333,0,1027.8933)"></path><path id="path25" d="m 3759.82,3813.26 c 4.12,-5.43 7.97,-11.04 11.68,-16.74 -3.71,5.7 -7.57,11.31 -11.68,16.74" style="fill:#4596d8;fill-opacity:1;fill-rule:nonzero;stroke:none" transform="matrix(0.13333333,0,0,-0.13333333,0,1027.8933)"></path><path id="path26" d="m 3813.96,3681.89 c -0.03,0.29 -0.1,0.57 -0.14,0.85 0.02,-0.12 0.03,-0.25 0.05,-0.38 0.03,-0.16 0.07,-0.31 0.09,-0.47" style="fill:#4596d8;fill-opacity:1;fill-rule:nonzero;stroke:none" transform="matrix(0.13333333,0,0,-0.13333333,0,1027.8933)"></path><path id="path27" d="m 3813.95,3681.74 c 0,0.05 0.01,0.1 0.01,0.15 0,-0.05 -0.01,-0.1 -0.01,-0.15 v 0" style="fill:#4596d8;fill-opacity:1;fill-rule:nonzero;stroke:none" transform="matrix(0.13333333,0,0,-0.13333333,0,1027.8933)"></path><path id="path28" d="m 3813.95,3681.74 c 0,0.05 0.01,0.1 0.01,0.15 -0.02,0.16 -0.06,0.31 -0.09,0.47 0.03,-0.2 0.05,-0.41 0.08,-0.62" style="fill:#4596d8;fill-opacity:1;fill-rule:nonzero;stroke:none" transform="matrix(0.13333333,0,0,-0.13333333,0,1027.8933)"></path><path id="path29" d="m 3813.95,3681.74 c 0,0.05 0.01,0.1 0.01,0.15 -0.02,0.16 -0.06,0.31 -0.09,0.47 0.03,-0.2 0.05,-0.41 0.08,-0.62" style="fill:#4596d8;fill-opacity:1;fill-rule:nonzero;stroke:none" transform="matrix(0.13333333,0,0,-0.13333333,0,1027.8933)"></path><path id="path30" d="m 2092.2,4368.6 c 2.24,-17.56 4.92,-34.98 7.75,-52.35 -2.76,17.39 -5.51,34.79 -7.75,52.35" style="fill:#4596d8;fill-opacity:1;fill-rule:nonzero;stroke:none" transform="matrix(0.13333333,0,0,-0.13333333,0,1027.8933)"></path><path id="path31" d="m 3791.65,3759.55 c 0.92,-2.05 1.9,-4.06 2.78,-6.13 -0.88,2.07 -1.85,4.08 -2.78,6.13" style="fill:#4596d8;fill-opacity:1;fill-rule:nonzero;stroke:none" transform="matrix(0.13333333,0,0,-0.13333333,0,1027.8933)"></path><path id="path32" d="m 3811.5,3696.82 c 0.87,-4.66 1.69,-9.34 2.32,-14.08 -0.66,4.73 -1.43,9.42 -2.32,14.08" style="fill:#4596d8;fill-opacity:1;fill-rule:nonzero;stroke:none" transform="matrix(0.13333333,0,0,-0.13333333,0,1027.8933)"></path><path id="path33" d="m 2092.2,4368.6 c 2.65,-20.84 5.81,-41.52 9.19,-62.13 -0.52,3.2 -0.91,6.43 -1.42,9.63 -2.84,17.42 -5.53,34.89 -7.77,52.5" style="fill:#4596d8;fill-opacity:1;fill-rule:nonzero;stroke:none" transform="matrix(0.13333333,0,0,-0.13333333,0,1027.8933)"></path><path id="path34" d="m 3813.74,3680.11 c -42.99,-462.28 -567.98,-731.18 -969.93,-471.16 -248.42,160.43 -455.03,380.18 -599.14,639.34 -4.07,8.55 -7.79,17.29 -11.73,25.92 0,0 0,0 0.01,0 -7.29,15.98 -14.43,32.03 -21.23,48.26 0.02,-0.05 0.04,-0.1 0.06,-0.15 -0.02,0.05 -0.04,0.1 -0.06,0.15 -6.58,15.7 -13.09,31.43 -19.2,47.36 133.11,-347.61 374.77,-642.08 683.53,-841.7 405.66,-262.34 940.7,32.25 940.7,515.14 0,13.05 -1.09,25.85 -2.8,38.47 -0.06,-0.55 -0.16,-1.08 -0.21,-1.63 v 0" style="fill:#4596d8;fill-opacity:1;fill-rule:nonzero;stroke:none" transform="matrix(0.13333333,0,0,-0.13333333,0,1027.8933)"></path><path id="path35" d="m 2110.36,4257.64 c 0,-0.01 0,-0.02 0,-0.03 -1.65,8.53 -3.31,17.06 -4.84,25.63 v -0.01 0.01 c -0.53,2.97 -1.16,5.91 -1.68,8.89 3.13,-18.09 6.51,-36.09 10.2,-53.99 -1.33,6.45 -2.42,12.99 -3.68,19.47 0,0.01 0,0.02 0,0.03" style="fill:#4596d8;fill-opacity:1;fill-rule:nonzero;stroke:none" transform="matrix(0.13333333,0,0,-0.13333333,0,1027.8933)"></path><path id="path36" d="m 3801.61,3734.78 c 0.66,-1.94 1.17,-3.94 1.79,-5.9 -0.62,1.96 -1.13,3.96 -1.79,5.9" style="fill:#4596d8;fill-opacity:1;fill-rule:nonzero;stroke:none" transform="matrix(0.13333333,0,0,-0.13333333,0,1027.8933)"></path><path id="path37" d="m 3807.32,3715.58 c 0.93,-3.55 1.73,-7.14 2.51,-10.74 -0.8,3.6 -1.58,7.2 -2.51,10.74" style="fill:#4596d8;fill-opacity:1;fill-rule:nonzero;stroke:none" transform="matrix(0.13333333,0,0,-0.13333333,0,1027.8933)"></path><path id="path38" d="m 2187.91,3982.39 v -0.01 c -10.59,28.22 -20.31,56.85 -29.43,85.76 l -0.01,0.01 0.01,-0.01 c -2.94,9.29 -6.03,18.51 -8.81,27.87 12.27,-41.38 26.08,-82.09 41.3,-122.13 -1.07,2.81 -2.01,5.68 -3.06,8.5 v 0.01" style="fill:#4596d8;fill-opacity:1;fill-rule:nonzero;stroke:none" transform="matrix(0.13333333,0,0,-0.13333333,0,1027.8933)"></path><path id="path39" d="m 3771.5,3796.52 c 1.2,-1.85 2.31,-3.75 3.47,-5.62 -1.16,1.87 -2.27,3.77 -3.47,5.62" style="fill:#4596d8;fill-opacity:1;fill-rule:nonzero;stroke:none" transform="matrix(0.13333333,0,0,-0.13333333,0,1027.8933)"></path><path id="path40" d="m 2129.09,4171.78 c 0.01,0 0.01,-0.01 0.01,-0.02 -4.81,19.41 -9.36,38.93 -13.5,58.59 4.35,-20.65 9.09,-41.15 14.18,-61.52 -0.24,0.97 -0.44,1.96 -0.68,2.93 0,0.01 0,0.02 -0.01,0.02" style="fill:#4596d8;fill-opacity:1;fill-rule:nonzero;stroke:none" transform="matrix(0.13333333,0,0,-0.13333333,0,1027.8933)"></path><path id="path41" d="m 2134.8,4149.9 c -0.8,3.09 -1.72,6.13 -2.51,9.23 4.51,-17.67 9.31,-35.23 14.37,-52.68 -0.96,3.31 -1.79,6.68 -2.73,9.99 -3.15,11.11 -6.19,22.27 -9.13,33.46" style="fill:#4596d8;fill-opacity:1;fill-rule:nonzero;stroke:none" transform="matrix(0.13333333,0,0,-0.13333333,0,1027.8933)"></path><path id="path42" d="m 2134.82,4149.84 c 2.93,-11.15 5.95,-22.27 9.09,-33.33 -3.13,11.06 -6.17,22.17 -9.09,33.33" style="fill:#4596d8;fill-opacity:1;fill-rule:nonzero;stroke:none" transform="matrix(0.13333333,0,0,-0.13333333,0,1027.8933)"></path><path id="path43" d="m 3782.06,3778.76 c 1.19,-2.16 2.36,-4.34 3.49,-6.54 -1.13,2.2 -2.29,4.38 -3.49,6.54" style="fill:#4596d8;fill-opacity:1;fill-rule:nonzero;stroke:none" transform="matrix(0.13333333,0,0,-0.13333333,0,1027.8933)"></path><path id="path44" d="m 3798.81,3741.19 c -3.3,8.9 -7.1,17.57 -11.26,26.05 4.16,-8.48 7.96,-17.15 11.26,-26.05 z m 11.36,-40.24 c -1.8,8.8 -3.88,17.48 -6.51,25.99 2.64,-8.49 4.68,-17.2 6.51,-25.99 z M 2092.2,4368.6 c 2.24,-17.56 4.99,-34.96 7.75,-52.35 1.8,-11.02 3.61,-22.04 5.57,-33.01 1.53,-8.57 3.19,-17.1 4.84,-25.63 4.26,-21.93 8.94,-43.72 14.02,-65.36 -5.08,21.64 -9.76,43.43 -14.02,65.36 1.26,-6.48 2.35,-13.02 3.68,-19.47 0.54,-2.59 1.01,-5.2 1.56,-7.79 4.14,-19.66 8.69,-39.18 13.5,-58.59 1.82,-7.34 3.81,-14.62 5.72,-21.92 2.92,-11.16 5.96,-22.27 9.09,-33.33 2.33,-8.21 4.62,-16.45 7.06,-24.61 -2.44,8.14 -4.71,16.35 -7.04,24.54 0.94,-3.31 1.77,-6.68 2.73,-9.99 1,-3.48 1.98,-6.97 3.01,-10.44 2.78,-9.36 5.87,-18.58 8.81,-27.87 6.07,-19.24 12.45,-38.33 19.17,-57.27 -6.72,18.94 -13.1,38.03 -19.17,57.27 9.12,-28.91 18.84,-57.54 29.43,-85.76 7.56,-20.16 15.52,-40.12 23.81,-59.91 6.8,-16.23 13.94,-32.28 21.23,-48.26 4.22,-9.32 8.49,-18.62 12.88,-27.86 -0.37,0.66 -0.79,1.28 -1.16,1.94 144.11,-259.16 350.72,-478.91 599.14,-639.34 401.95,-260.02 926.94,8.88 969.93,471.16 -0.21,1.61 -0.16,3.29 -0.4,4.89 0.13,-0.9 0.37,-1.76 0.53,-2.64 -0.02,0.13 -0.03,0.26 -0.05,0.38 -0.63,4.74 -1.45,9.42 -2.32,14.08 -0.52,2.69 -1.08,5.36 -1.67,8.02 -0.78,3.6 -1.58,7.19 -2.51,10.74 -1.18,4.48 -2.52,8.91 -3.92,13.3 -0.62,1.96 -1.13,3.96 -1.79,5.9 -2.17,6.32 -4.58,12.52 -7.18,18.64 -0.88,2.07 -1.86,4.08 -2.78,6.13 -1.94,4.27 -3.95,8.51 -6.1,12.67 -1.13,2.2 -2.3,4.38 -3.49,6.54 -2.25,4.11 -4.63,8.15 -7.09,12.14 -1.16,1.87 -2.27,3.77 -3.47,5.62 -3.71,5.7 -7.56,11.31 -11.68,16.74 4.12,-5.44 7.98,-11.05 11.63,-16.8 3.65,-5.76 7.09,-11.64 10.38,-17.61 -3.29,5.97 -6.73,11.86 -10.38,17.61 -3.65,5.75 -7.51,11.36 -11.63,16.8 -35.82,47.77 -87.18,84.4 -147.29,103.11 -139.34,42.59 -260.36,126.59 -348.73,238.45 -384.56,-48.96 -831.63,-28.66 -1171.6,213.78" style="fill:#4596d8;fill-opacity:1;fill-rule:nonzero;stroke:none" transform="matrix(0.13333333,0,0,-0.13333333,0,1027.8933)"></path><path id="path45" d="m 2187.91,3982.38 c 1.05,-2.82 1.99,-5.69 3.06,-8.5 0.51,-1.35 1.03,-2.7 1.55,-4.05 6.11,-15.93 12.62,-31.66 19.2,-47.36 -8.29,19.79 -16.25,39.75 -23.81,59.91" style="fill:#4596d8;fill-opacity:1;fill-rule:nonzero;stroke:none" transform="matrix(0.13333333,0,0,-0.13333333,0,1027.8933)"></path><path id="path46" d="m 2129.1,4171.76 c 0.24,-0.97 0.44,-1.96 0.68,-2.93 0.81,-3.25 1.68,-6.46 2.51,-9.7 0.79,-3.1 1.71,-6.14 2.51,-9.23 -1.9,7.28 -3.89,14.54 -5.7,21.86" style="fill:#4596d8;fill-opacity:1;fill-rule:nonzero;stroke:none" transform="matrix(0.13333333,0,0,-0.13333333,0,1027.8933)"></path><path id="path47" d="m 2099.97,4316.1 c 0.51,-3.2 0.9,-6.43 1.42,-9.63 0.79,-4.79 1.63,-9.56 2.45,-14.34 0.52,-2.98 1.15,-5.92 1.68,-8.89 -1.95,10.92 -3.76,21.89 -5.55,32.86" style="fill:#4596d8;fill-opacity:1;fill-rule:nonzero;stroke:none" transform="matrix(0.13333333,0,0,-0.13333333,0,1027.8933)"></path><path id="path48" d="m 3813.74,3680.11 v 0 c 0.05,0.55 0.15,1.08 0.21,1.63 v 0 c -0.05,-0.55 -0.16,-1.08 -0.21,-1.63" style="fill:#4596d8;fill-opacity:1;fill-rule:nonzero;stroke:none" transform="matrix(0.13333333,0,0,-0.13333333,0,1027.8933)"></path><path id="path49" d="m 3813.87,3682.36 c -0.16,0.88 -0.4,1.74 -0.53,2.64 0.24,-1.6 0.19,-3.28 0.4,-4.89 0.05,0.55 0.16,1.08 0.21,1.63 -0.03,0.21 -0.05,0.42 -0.08,0.62" style="fill:#4596d8;fill-opacity:1;fill-rule:nonzero;stroke:none" transform="matrix(0.13333333,0,0,-0.13333333,0,1027.8933)"></path><path id="path50" d="m 3759.82,3813.26 c 4.12,-5.44 7.98,-11.05 11.63,-16.8 -3.65,5.75 -7.51,11.36 -11.63,16.8" style="fill:#4596d8;fill-opacity:1;fill-rule:nonzero;stroke:none" transform="matrix(0.13333333,0,0,-0.13333333,0,1027.8933)"></path><path id="path51" d="m 3771.45,3796.46 c 3.65,-5.75 7.09,-11.64 10.38,-17.61 -3.29,5.97 -6.73,11.85 -10.38,17.61" style="fill:#4596d8;fill-opacity:1;fill-rule:nonzero;stroke:none" transform="matrix(0.13333333,0,0,-0.13333333,0,1027.8933)"></path><path id="path52" d="m 2244.67,3848.29 c -4.07,8.55 -7.79,17.29 -11.72,25.92 -0.01,0 -0.01,0 -0.01,0 3.94,-8.63 7.66,-17.37 11.73,-25.92" style="fill:#4596d8;fill-opacity:1;fill-rule:nonzero;stroke:none" transform="matrix(0.13333333,0,0,-0.13333333,0,1027.8933)"></path><path id="path53" d="m 2245.83,3846.35 c -4.39,9.24 -8.66,18.54 -12.88,27.86 3.93,-8.63 7.65,-17.37 11.72,-25.92 0.37,-0.66 0.79,-1.28 1.16,-1.94" style="fill:#4596d8;fill-opacity:1;fill-rule:nonzero;stroke:none" transform="matrix(0.13333333,0,0,-0.13333333,0,1027.8933)"></path><path id="path54" d="m 2129.1,4171.76 v 0 c 0,0.01 0,0.02 -0.01,0.02 0.01,0 0.01,-0.01 0.01,-0.02" style="fill:#4596d8;fill-opacity:1;fill-rule:nonzero;stroke:none" transform="matrix(0.13333333,0,0,-0.13333333,0,1027.8933)"></path><path id="path55" d="m 2143.93,4116.44 c -0.01,0.02 -0.01,0.05 -0.02,0.07 -3.14,11.06 -6.16,22.18 -9.09,33.33 -0.01,0.02 -0.01,0.04 -0.02,0.06 2.94,-11.19 5.98,-22.35 9.13,-33.46" style="fill:#4596d8;fill-opacity:1;fill-rule:nonzero;stroke:none" transform="matrix(0.13333333,0,0,-0.13333333,0,1027.8933)"></path><path id="path56" d="m 2150.97,4091.9 c -2.44,8.16 -4.73,16.4 -7.06,24.61 0.01,-0.02 0.01,-0.05 0.02,-0.07 2.33,-8.19 4.6,-16.4 7.04,-24.54" style="fill:#4596d8;fill-opacity:1;fill-rule:nonzero;stroke:none" transform="matrix(0.13333333,0,0,-0.13333333,0,1027.8933)"></path><path id="path57" d="m 2134.8,4149.9 c 0.01,-0.02 0.01,-0.04 0.02,-0.06 -1.91,7.3 -3.9,14.58 -5.72,21.92 v 0 c 1.81,-7.32 3.8,-14.58 5.7,-21.86" style="fill:#4596d8;fill-opacity:1;fill-rule:nonzero;stroke:none" transform="matrix(0.13333333,0,0,-0.13333333,0,1027.8933)"></path><path id="path58" d="m 2105.52,4283.23 v 0.01 0 -0.01" style="fill:#4596d8;fill-opacity:1;fill-rule:nonzero;stroke:none" transform="matrix(0.13333333,0,0,-0.13333333,0,1027.8933)"></path><path id="path59" d="m 2099.95,4316.25 c -2.83,17.37 -5.51,34.79 -7.75,52.35 2.24,-17.61 4.93,-35.08 7.77,-52.5 -0.01,0.05 -0.01,0.1 -0.02,0.15" style="fill:#4596d8;fill-opacity:1;fill-rule:nonzero;stroke:none" transform="matrix(0.13333333,0,0,-0.13333333,0,1027.8933)"></path><path id="path60" d="m 2105.52,4283.24 v 0 c -1.96,10.97 -3.77,21.99 -5.57,33.01 0.01,-0.05 0.01,-0.1 0.02,-0.15 1.79,-10.97 3.6,-21.94 5.55,-32.86" style="fill:#4596d8;fill-opacity:1;fill-rule:nonzero;stroke:none" transform="matrix(0.13333333,0,0,-0.13333333,0,1027.8933)"></path><path id="path61" d="m 3803.66,3726.94 c 2.63,-8.51 4.71,-17.19 6.51,-25.99 -1.83,8.79 -3.87,17.5 -6.51,25.99" style="fill:#4596d8;fill-opacity:1;fill-rule:nonzero;stroke:none" transform="matrix(0.13333333,0,0,-0.13333333,0,1027.8933)"></path><path id="path62" d="m 4542.76,3936.92 c -2.15,4.17 -4.16,8.41 -6.1,12.69 1.94,-4.28 3.96,-8.52 6.1,-12.69" style="fill:#4596d8;fill-opacity:1;fill-rule:nonzero;stroke:none" transform="matrix(0.13333333,0,0,-0.13333333,0,1027.8933)"></path><path id="path63" d="m 6135.78,3739.38 c 0.53,-1.38 1.05,-2.77 1.58,-4.15 -0.53,1.38 -1.05,2.77 -1.58,4.15" style="fill:#4596d8;fill-opacity:1;fill-rule:nonzero;stroke:none" transform="matrix(0.13333333,0,0,-0.13333333,0,1027.8933)"></path><path id="path64" d="m 4533.88,3955.74 c -2.6,6.12 -5.02,12.33 -7.18,18.65 2.15,-6.32 4.58,-12.53 7.18,-18.65" style="fill:#4596d8;fill-opacity:1;fill-rule:nonzero;stroke:none" transform="matrix(0.13333333,0,0,-0.13333333,0,1027.8933)"></path><path id="path65" d="m 6212.71,3478.8 c 0.55,-2.58 1.02,-5.18 1.56,-7.77 -0.54,2.59 -1.01,5.19 -1.56,7.77" style="fill:#4596d8;fill-opacity:1;fill-rule:nonzero;stroke:none" transform="matrix(0.13333333,0,0,-0.13333333,0,1027.8933)"></path><path id="path66" d="m 4518.47,4004.33 c -0.59,2.66 -1.14,5.32 -1.66,8.01 0.51,-2.69 1.08,-5.35 1.66,-8.01" style="fill:#4596d8;fill-opacity:1;fill-rule:nonzero;stroke:none" transform="matrix(0.13333333,0,0,-0.13333333,0,1027.8933)"></path><path id="path67" d="m 4524.91,3980.24 c -1.39,4.41 -2.73,8.83 -3.91,13.32 1.17,-4.49 2.52,-8.91 3.91,-13.32" style="fill:#4596d8;fill-opacity:1;fill-rule:nonzero;stroke:none" transform="matrix(0.13333333,0,0,-0.13333333,0,1027.8933)"></path><path id="path68" d="m 6178.64,3613.13 c 1.03,-3.46 2,-6.94 3.01,-10.4 -1.01,3.46 -1.98,6.94 -3.01,10.4" style="fill:#4596d8;fill-opacity:1;fill-rule:nonzero;stroke:none" transform="matrix(0.13333333,0,0,-0.13333333,0,1027.8933)"></path><path id="path69" d="m 6196.02,3550.01 c 0.83,-3.23 1.7,-6.44 2.51,-9.68 -0.81,3.24 -1.68,6.45 -2.51,9.68" style="fill:#4596d8;fill-opacity:1;fill-rule:nonzero;stroke:none" transform="matrix(0.13333333,0,0,-0.13333333,0,1027.8933)"></path><path id="path70" d="m 4553.34,3918.25 c -2.46,4 -4.84,8.05 -7.11,12.17 2.27,-4.13 4.65,-8.17 7.11,-12.17" style="fill:#4596d8;fill-opacity:1;fill-rule:nonzero;stroke:none" transform="matrix(0.13333333,0,0,-0.13333333,0,1027.8933)"></path><path id="path71" d="m 4568.49,3895.9 c -4.12,5.43 -7.97,11.04 -11.68,16.74 3.71,-5.71 7.57,-11.31 11.68,-16.74" style="fill:#4596d8;fill-opacity:1;fill-rule:nonzero;stroke:none" transform="matrix(0.13333333,0,0,-0.13333333,0,1027.8933)"></path><path id="path72" d="m 6224.47,3417.02 c 0.83,-4.77 1.66,-9.54 2.45,-14.33 -0.79,4.79 -1.62,9.56 -2.45,14.33" style="fill:#4596d8;fill-opacity:1;fill-rule:nonzero;stroke:none" transform="matrix(0.13333333,0,0,-0.13333333,0,1027.8933)"></path><path id="path73" d="m 4514.35,4027.27 c 0.03,-0.28 0.1,-0.55 0.13,-0.84 -0.01,0.13 -0.03,0.25 -0.04,0.38 -0.03,0.15 -0.07,0.31 -0.09,0.46" style="fill:#4596d8;fill-opacity:1;fill-rule:nonzero;stroke:none" transform="matrix(0.13333333,0,0,-0.13333333,0,1027.8933)"></path><path id="path74" d="m 4514.36,4027.41 c 0,-0.04 -0.01,-0.09 -0.01,-0.14 0,0.05 0.01,0.09 0.01,0.14 v 0" style="fill:#4596d8;fill-opacity:1;fill-rule:nonzero;stroke:none" transform="matrix(0.13333333,0,0,-0.13333333,0,1027.8933)"></path><path id="path75" d="m 4514.36,4027.41 c 0,-0.05 -0.01,-0.09 -0.01,-0.14 0.02,-0.15 0.06,-0.31 0.09,-0.46 -0.03,0.2 -0.05,0.4 -0.08,0.6" style="fill:#4596d8;fill-opacity:1;fill-rule:nonzero;stroke:none" transform="matrix(0.13333333,0,0,-0.13333333,0,1027.8933)"></path><path id="path76" d="m 4514.36,4027.41 c 0,-0.05 -0.01,-0.09 -0.01,-0.14 0.02,-0.15 0.06,-0.31 0.09,-0.46 -0.03,0.2 -0.05,0.4 -0.08,0.6" style="fill:#4596d8;fill-opacity:1;fill-rule:nonzero;stroke:none" transform="matrix(0.13333333,0,0,-0.13333333,0,1027.8933)"></path><path id="path77" d="m 6236.11,3340.56 c -2.24,17.56 -4.92,34.99 -7.75,52.36 2.76,-17.39 5.51,-34.8 7.75,-52.36" style="fill:#4596d8;fill-opacity:1;fill-rule:nonzero;stroke:none" transform="matrix(0.13333333,0,0,-0.13333333,0,1027.8933)"></path><path id="path78" d="m 4521,3993.56 c -0.94,3.56 -1.74,7.16 -2.53,10.77 0.8,-3.61 1.59,-7.21 2.53,-10.77" style="fill:#4596d8;fill-opacity:1;fill-rule:nonzero;stroke:none" transform="matrix(0.13333333,0,0,-0.13333333,0,1027.8933)"></path><path id="path79" d="m 4546.23,3930.42 c -1.18,2.15 -2.34,4.31 -3.47,6.5 1.13,-2.19 2.29,-4.35 3.47,-6.5" style="fill:#4596d8;fill-opacity:1;fill-rule:nonzero;stroke:none" transform="matrix(0.13333333,0,0,-0.13333333,0,1027.8933)"></path><path id="path80" d="m 4536.66,3949.61 c -0.92,2.04 -1.9,4.06 -2.78,6.13 0.88,-2.07 1.85,-4.09 2.78,-6.13" style="fill:#4596d8;fill-opacity:1;fill-rule:nonzero;stroke:none" transform="matrix(0.13333333,0,0,-0.13333333,0,1027.8933)"></path><path id="path81" d="m 4516.81,4012.34 c -0.87,4.66 -1.69,9.35 -2.33,14.09 0.66,-4.73 1.44,-9.43 2.33,-14.09" style="fill:#4596d8;fill-opacity:1;fill-rule:nonzero;stroke:none" transform="matrix(0.13333333,0,0,-0.13333333,0,1027.8933)"></path><path id="path82" d="m 4556.81,3912.64 c -1.2,1.84 -2.31,3.74 -3.47,5.61 1.16,-1.87 2.27,-3.76 3.47,-5.61" style="fill:#4596d8;fill-opacity:1;fill-rule:nonzero;stroke:none" transform="matrix(0.13333333,0,0,-0.13333333,0,1027.8933)"></path><path id="path83" d="m 4526.7,3974.39 c -0.66,1.93 -1.17,3.91 -1.79,5.85 0.62,-1.94 1.13,-3.92 1.79,-5.85" style="fill:#4596d8;fill-opacity:1;fill-rule:nonzero;stroke:none" transform="matrix(0.13333333,0,0,-0.13333333,0,1027.8933)"></path><path id="path84" d="m 6236.11,3340.56 c -2.65,20.84 -5.81,41.52 -9.19,62.13 0.52,-3.19 0.91,-6.42 1.42,-9.62 2.84,-17.42 5.53,-34.9 7.77,-52.51" style="fill:#4596d8;fill-opacity:1;fill-rule:nonzero;stroke:none" transform="matrix(0.13333333,0,0,-0.13333333,0,1027.8933)"></path><path id="path85" d="m 6193.53,3559.16 c 0.8,-3.06 1.71,-6.08 2.49,-9.15 -4.52,17.69 -9.31,35.26 -14.37,52.72 0.96,-3.31 1.78,-6.66 2.72,-9.98 3.17,-11.15 6.21,-22.35 9.16,-33.59" style="fill:#4596d8;fill-opacity:1;fill-rule:nonzero;stroke:none" transform="matrix(0.13333333,0,0,-0.13333333,0,1027.8933)"></path><path id="path86" d="m 6169.84,3641.01 c -0.01,0.02 -0.02,0.04 -0.02,0.06 2.93,-9.31 6.04,-18.56 8.82,-27.94 -12.27,41.37 -26.07,82.07 -41.28,122.1 11.79,-30.93 22.43,-62.41 32.46,-94.16 0,-0.02 0.01,-0.04 0.02,-0.06" style="fill:#4596d8;fill-opacity:1;fill-rule:nonzero;stroke:none" transform="matrix(0.13333333,0,0,-0.13333333,0,1027.8933)"></path><path id="path87" d="m 6193.51,3559.22 c -2.93,11.2 -5.97,22.36 -9.12,33.47 3.14,-11.11 6.19,-22.27 9.12,-33.47" style="fill:#4596d8;fill-opacity:1;fill-rule:nonzero;stroke:none" transform="matrix(0.13333333,0,0,-0.13333333,0,1027.8933)"></path><path id="path88" d="m 4514.57,4029.05 c 42.99,462.28 567.98,731.18 969.93,471.16 248.42,-160.44 455.03,-380.18 599.14,-639.34 11.62,-24.38 22.47,-49.18 32.95,-74.18 -0.02,0.05 -0.04,0.1 -0.06,0.15 0.02,-0.05 0.04,-0.1 0.06,-0.15 6.57,-15.68 13.07,-31.4 19.19,-47.31 -133.13,347.58 -374.77,642.03 -683.52,841.64 -405.66,262.35 -940.7,-32.25 -940.7,-515.13 0,-13.05 1.09,-25.86 2.8,-38.48 0.06,0.55 0.15,1.09 0.21,1.64 v 0" style="fill:#4596d8;fill-opacity:1;fill-rule:nonzero;stroke:none" transform="matrix(0.13333333,0,0,-0.13333333,0,1027.8933)"></path><path id="path89" d="m 6217.95,3451.51 c 0,0.02 0,0.04 -0.01,0.05 1.66,-8.54 3.32,-17.08 4.85,-25.66 0,0.01 0,0.02 0,0.03 0,-0.01 0,-0.02 0,-0.03 0.53,-2.97 1.17,-5.9 1.68,-8.88 -3.13,18.1 -6.52,36.11 -10.2,54.01 1.33,-6.45 2.41,-12.99 3.67,-19.47 0.01,-0.01 0.01,-0.03 0.01,-0.05" style="fill:#4596d8;fill-opacity:1;fill-rule:nonzero;stroke:none" transform="matrix(0.13333333,0,0,-0.13333333,0,1027.8933)"></path><path id="path90" d="m 6199.22,3537.37 c -0.01,0.02 -0.02,0.05 -0.02,0.07 1.68,-6.81 3.13,-13.7 4.73,-20.54 v 0 0 c 2.98,-12.68 6.09,-25.31 8.78,-38.1 -4.35,20.65 -9.1,41.16 -14.18,61.53 0.24,-0.95 0.43,-1.93 0.67,-2.89 0,-0.02 0.01,-0.05 0.02,-0.07" style="fill:#4596d8;fill-opacity:1;fill-rule:nonzero;stroke:none" transform="matrix(0.13333333,0,0,-0.13333333,0,1027.8933)"></path><path id="path91" d="m 6199.2,3537.44 c -0.24,0.96 -0.43,1.94 -0.67,2.89 -0.81,3.24 -1.68,6.45 -2.51,9.68 -0.78,3.07 -1.69,6.09 -2.49,9.15 1.9,-7.24 3.87,-14.45 5.67,-21.72" style="fill:#4596d8;fill-opacity:1;fill-rule:nonzero;stroke:none" transform="matrix(0.13333333,0,0,-0.13333333,0,1027.8933)"></path><path id="path92" d="m 6228.34,3393.07 c -0.51,3.2 -0.9,6.43 -1.42,9.62 -0.79,4.79 -1.62,9.56 -2.45,14.33 -0.51,2.98 -1.15,5.91 -1.68,8.88 1.95,-10.91 3.76,-21.87 5.55,-32.83" style="fill:#4596d8;fill-opacity:1;fill-rule:nonzero;stroke:none" transform="matrix(0.13333333,0,0,-0.13333333,0,1027.8933)"></path><path id="path93" d="m 6217.94,3451.56 c -1.26,6.48 -2.34,13.02 -3.67,19.47 -0.54,2.59 -1.01,5.19 -1.56,7.77 -2.69,12.79 -5.8,25.42 -8.78,38.1 5.08,-21.63 9.75,-43.41 14.01,-65.34" style="fill:#4596d8;fill-opacity:1;fill-rule:nonzero;stroke:none" transform="matrix(0.13333333,0,0,-0.13333333,0,1027.8933)"></path><path id="path94" d="m 4529.5,3967.97 c 3.3,-8.9 7.1,-17.57 11.26,-26.05 -4.16,8.48 -7.96,17.15 -11.26,26.05 z m -11.36,40.24 c 1.8,-8.8 3.88,-17.48 6.51,-25.99 -2.64,8.49 -4.68,17.2 -6.51,25.99 z m 1717.97,-667.65 c -2.24,17.56 -4.99,34.97 -7.75,52.36 -1.8,11.02 -3.61,22.02 -5.57,32.98 -1.53,8.58 -3.19,17.12 -4.85,25.66 -4.26,21.93 -8.93,43.71 -14.01,65.34 -1.6,6.84 -3.05,13.73 -4.73,20.54 -1.81,7.3 -3.78,14.53 -5.69,21.78 -2.93,11.2 -5.98,22.36 -9.12,33.47 -2.33,8.2 -4.61,16.42 -7.05,24.57 2.43,-8.13 4.71,-16.33 7.03,-24.51 -0.94,3.32 -1.76,6.67 -2.72,9.98 -1.01,3.46 -1.98,6.94 -3.01,10.4 -2.78,9.38 -5.89,18.63 -8.82,27.94 -6.07,19.22 -12.44,38.29 -19.16,57.22 6.72,-18.93 13.09,-38 19.16,-57.22 -10.03,31.75 -20.67,63.23 -32.46,94.16 -0.53,1.38 -1.05,2.77 -1.58,4.15 -6.12,15.91 -12.62,31.63 -19.19,47.31 8.29,-19.79 16.25,-39.76 23.81,-59.92 -7.56,20.16 -15.52,40.13 -23.81,59.92 -10.48,25 -21.33,49.8 -32.95,74.18 4.07,-8.55 7.79,-17.3 11.73,-25.93 -4.23,9.33 -8.5,18.63 -12.89,27.87 0.37,-0.66 0.79,-1.28 1.16,-1.94 -144.11,259.16 -350.72,478.9 -599.14,639.34 -401.95,260.02 -926.94,-8.88 -969.93,-471.16 0.21,-1.61 0.16,-3.29 0.4,-4.89 -0.13,0.9 -0.37,1.76 -0.53,2.65 0.01,-0.13 0.03,-0.25 0.04,-0.38 0.64,-4.74 1.46,-9.43 2.33,-14.09 0.52,-2.69 1.07,-5.35 1.66,-8.01 0.79,-3.61 1.59,-7.21 2.53,-10.77 1.18,-4.49 2.52,-8.91 3.91,-13.32 0.62,-1.94 1.13,-3.92 1.79,-5.85 2.16,-6.32 4.58,-12.53 7.18,-18.65 0.88,-2.07 1.86,-4.09 2.78,-6.13 1.94,-4.28 3.95,-8.52 6.1,-12.69 1.13,-2.19 2.29,-4.35 3.47,-6.5 2.27,-4.12 4.65,-8.17 7.11,-12.17 1.16,-1.87 2.27,-3.77 3.47,-5.61 3.71,-5.7 7.56,-11.31 11.68,-16.74 -4.12,5.43 -7.98,11.05 -11.63,16.8 -3.65,5.75 -7.09,11.64 -10.38,17.61 3.29,-5.98 6.73,-11.86 10.38,-17.61 3.65,-5.75 7.51,-11.37 11.63,-16.8 35.82,-47.77 87.18,-84.4 147.29,-103.11 139.34,-42.6 260.36,-126.59 348.73,-238.46 384.56,48.97 831.62,28.66 1171.6,-213.77" style="fill:#4596d8;fill-opacity:1;fill-rule:nonzero;stroke:none" transform="matrix(0.13333333,0,0,-0.13333333,0,1027.8933)"></path><path id="path95" d="m 4514.57,4029.05 v 0 c -0.06,-0.55 -0.15,-1.09 -0.21,-1.64 v 0 c 0.05,0.56 0.15,1.09 0.21,1.64" style="fill:#4596d8;fill-opacity:1;fill-rule:nonzero;stroke:none" transform="matrix(0.13333333,0,0,-0.13333333,0,1027.8933)"></path><path id="path96" d="m 4514.44,4026.81 c 0.16,-0.89 0.4,-1.75 0.53,-2.65 -0.24,1.6 -0.19,3.28 -0.4,4.89 -0.06,-0.55 -0.16,-1.08 -0.21,-1.64 0.03,-0.2 0.05,-0.4 0.08,-0.6" style="fill:#4596d8;fill-opacity:1;fill-rule:nonzero;stroke:none" transform="matrix(0.13333333,0,0,-0.13333333,0,1027.8933)"></path><path id="path97" d="m 4568.49,3895.9 c -4.12,5.43 -7.98,11.05 -11.63,16.8 3.65,-5.75 7.51,-11.37 11.63,-16.8" style="fill:#4596d8;fill-opacity:1;fill-rule:nonzero;stroke:none" transform="matrix(0.13333333,0,0,-0.13333333,0,1027.8933)"></path><path id="path98" d="m 4556.86,3912.7 c -3.65,5.75 -7.09,11.63 -10.38,17.61 3.29,-5.97 6.73,-11.86 10.38,-17.61" style="fill:#4596d8;fill-opacity:1;fill-rule:nonzero;stroke:none" transform="matrix(0.13333333,0,0,-0.13333333,0,1027.8933)"></path><path id="path99" d="m 6095.37,3834.94 c -3.94,8.63 -7.66,17.38 -11.73,25.93 -0.37,0.66 -0.79,1.28 -1.16,1.94 4.39,-9.24 8.66,-18.54 12.89,-27.87" style="fill:#4596d8;fill-opacity:1;fill-rule:nonzero;stroke:none" transform="matrix(0.13333333,0,0,-0.13333333,0,1027.8933)"></path><path id="path100" d="m 6199.2,3537.44 v 0 c 0,-0.02 0.01,-0.05 0.02,-0.07 -0.01,0.02 -0.02,0.05 -0.02,0.07" style="fill:#4596d8;fill-opacity:1;fill-rule:nonzero;stroke:none" transform="matrix(0.13333333,0,0,-0.13333333,0,1027.8933)"></path><path id="path101" d="m 6184.37,3592.75 c 0.01,-0.02 0.01,-0.04 0.02,-0.06 3.15,-11.11 6.19,-22.27 9.12,-33.47 0.01,-0.02 0.01,-0.04 0.02,-0.06 -2.95,11.24 -5.99,22.44 -9.16,33.59" style="fill:#4596d8;fill-opacity:1;fill-rule:nonzero;stroke:none" transform="matrix(0.13333333,0,0,-0.13333333,0,1027.8933)"></path><path id="path102" d="m 6193.53,3559.16 c -0.01,0.02 -0.01,0.04 -0.02,0.06 1.91,-7.25 3.88,-14.48 5.69,-21.78 v 0 c -1.8,7.27 -3.77,14.48 -5.67,21.72" style="fill:#4596d8;fill-opacity:1;fill-rule:nonzero;stroke:none" transform="matrix(0.13333333,0,0,-0.13333333,0,1027.8933)"></path><path id="path103" d="m 6177.34,3617.26 c 2.44,-8.15 4.72,-16.37 7.05,-24.57 -0.01,0.02 -0.01,0.04 -0.02,0.06 -2.32,8.18 -4.6,16.38 -7.03,24.51" style="fill:#4596d8;fill-opacity:1;fill-rule:nonzero;stroke:none" transform="matrix(0.13333333,0,0,-0.13333333,0,1027.8933)"></path><path id="path104" d="m 6228.36,3392.92 c 2.83,-17.37 5.51,-34.8 7.75,-52.36 -2.24,17.61 -4.93,35.09 -7.77,52.51 0.01,-0.05 0.01,-0.1 0.02,-0.15" style="fill:#4596d8;fill-opacity:1;fill-rule:nonzero;stroke:none" transform="matrix(0.13333333,0,0,-0.13333333,0,1027.8933)"></path><path id="path105" d="m 6222.79,3425.93 c 0,-0.01 0,-0.02 0,-0.03 v 0 c 0,0.01 0,0.02 0,0.03" style="fill:#4596d8;fill-opacity:1;fill-rule:nonzero;stroke:none" transform="matrix(0.13333333,0,0,-0.13333333,0,1027.8933)"></path><path id="path106" d="m 6222.79,3425.9 v 0 c 1.96,-10.96 3.77,-21.96 5.57,-32.98 -0.01,0.05 -0.01,0.1 -0.02,0.15 -1.79,10.96 -3.6,21.92 -5.55,32.83" style="fill:#4596d8;fill-opacity:1;fill-rule:nonzero;stroke:none" transform="matrix(0.13333333,0,0,-0.13333333,0,1027.8933)"></path><path id="path107" d="m 4524.65,3982.22 c -2.63,8.51 -4.71,17.19 -6.51,25.99 1.83,-8.79 3.87,-17.5 6.51,-25.99" style="fill:#4596d8;fill-opacity:1;fill-rule:nonzero;stroke:none" transform="matrix(0.13333333,0,0,-0.13333333,0,1027.8933)"></path><path id="path108" d="M 151.316,151.313 H 18723.7 V 7557.84 H 151.316 Z M 18875,0 H 0 V 7709.16 H 18875 V 0" style="fill:#3cb83d;fill-opacity:1;fill-rule:nonzero;stroke:none" transform="matrix(0.13333333,0,0,-0.13333333,0,1027.8933)"></path></g></g></svg> 